<svg aria-hidden="true" style="width:0;height:0;position:absolute;overflow:hidden" xmlns="http://www.w3.org/2000/svg"><defs><symbol id="icon-pagination" viewBox="0 0 34 32"><path fill="#d31342" style="fill:var(--color2,#d31342)" d="M25.984 9.241a.923.923 0 0 0-.078-1.335L17.043.256a1.116 1.116 0 0 0-1.441.016L6.709 8.314a.919.919 0 0 0-.043 1.333l.223.229c.37.38.968.425 1.335.101l.665-.587v8.596a.96.96 0 0 0 .967.954h3.467a.96.96 0 0 0 .967-.954v-6.014h4.422v6.014c-.008.527.375.954.909.954h3.674a.961.961 0 0 0 .968-.954V9.512l.41.355c.226.196.701.039 1.06-.352l.252-.273z"/></symbol><symbol id="burger" viewBox="0 0 48 32"><path d="M0 5.333V0h48v5.333H0zm0 13.334h48v-5.333H0v5.333zM0 32h48v-5.333H0V32z"/></symbol><symbol id="close" viewBox="0 0 32 32"><path d="M31.439 3.166 28.273 0 15.72 12.553 3.167 0 .001 3.166l12.553 12.553L.001 28.272l3.166 3.166L15.72 18.885l12.553 12.553 3.166-3.166-12.553-12.553L31.439 3.166z"/></symbol><symbol id="icon-arrow-button" viewBox="0 0 32 32"><path fill="none" stroke="#d41443" style="stroke:var(--color1,#d41443)" stroke-linejoin="round" stroke-linecap="round" stroke-width="6.4" d="M9.6 3.2 22.4 16 9.6 28.8"/></symbol><symbol id="icon-arrow-button-white" viewBox="0 0 19 32"><path fill="none" stroke="#fff" style="stroke:var(--color1,#fff)" stroke-linejoin="round" stroke-linecap="round" stroke-width="6.4" d="M3.2 3.2 14.752 16 3.2 28.8"/></symbol><symbol id="icon-burger" viewBox="0 0 32 32"><path fill="none" stroke="#d41443" style="stroke:var(--color1,#d41443)" stroke-width="1.6" d="M0 6.4h32M0 16h32M0 25.6h32"/></symbol><symbol id="icon-cross" viewBox="0 0 32 32"><path fill="none" stroke="#fff" style="stroke:var(--color2,#fff)" stroke-width="2" d="m2.519 2 26.963 28M2 29.481 30 2.518"/></symbol><symbol id="icon-facebook" viewBox="0 0 32 32"><path d="M16 32c8.837 0 16-7.163 16-16S24.837 0 16 0 0 7.163 0 16s7.163 16 16 16z"/><path fill="#fff" style="fill:var(--color2,#fff)" d="M20.446 15.982h-2.61V25.6h-3.955v-9.618H12v-3.38h1.881v-2.187c0-1.564.739-4.014 3.99-4.014l2.929.012v3.281h-2.125c-.349 0-.839.175-.839.921v1.989h2.955l-.346 3.377z"/></symbol><symbol id="icon-github" viewBox="0 0 32 32"><path d="M32 16c0 8.837-7.163 16-16 16S0 24.837 0 16 7.163 0 16 0s16 7.163 16 16z"/><path fill="#fff" style="fill:var(--color2,#fff)" d="M16 6.588c-5.169 0-9.412 4.242-9.412 9.412 0 4.411 3.095 8.419 7.206 9.412v-3.114a2.307 2.307 0 0 1-1.197-.03c-.556-.164-1.008-.535-1.344-1.1-.214-.361-.593-.752-.988-.723l-.097-1.099c.855-.073 1.595.521 2.034 1.259.195.328.419.52.708.605.278.082.578.043.926-.08.088-.698.407-.959.648-1.326v-.001c-2.451-.366-3.428-1.666-3.816-2.693-.514-1.363-.238-3.066.671-4.142.018-.021.05-.076.037-.114-.417-1.258.091-2.299.11-2.41.481.142.559-.143 2.089.786l.264.159c.111.066.076.028.186.02A8.031 8.031 0 0 1 16 11.131a8.016 8.016 0 0 1 2.002.285l.086.009c-.007-.001.023-.005.075-.036 1.911-1.157 1.842-.779 2.355-.946.019.111.519 1.169.107 2.411-.056.171 1.657 1.739.708 4.256-.388 1.027-1.365 2.328-3.816 2.693v.001c.314.479.692.734.69 1.722v3.887c4.111-.993 7.206-5 7.206-9.412 0-5.169-4.242-9.412-9.412-9.412z"/></symbol><symbol id="icon-telegram" viewBox="0 0 32 32"><path d="M32 16c0 8.837-7.163 16-16 16S0 24.837 0 16 7.163 0 16 0s16 7.163 16 16z"/><path fill="#fff" style="fill:var(--color2,#fff)" d="m12.867 18.375-.318 4.169c.454 0 .651-.182.887-.401l2.13-1.9 4.415 3.017c.81.421 1.38.199 1.599-.695l2.898-12.672.001-.001c.257-1.117-.433-1.554-1.222-1.28L6.225 14.698c-1.162.421-1.145 1.026-.198 1.3l4.355 1.264 10.115-5.907c.476-.294.909-.131.553.163l-8.182 6.857z"/></symbol><symbol id="icon-arrow-button-circle" viewBox="0 0 32 32"><path d="m19.414 27.414 10-10a2 2 0 0 0 0-2.828l-10-10a2 2 0 1 0-2.828 2.828L23.172 14H4a2 2 0 1 0 0 4h19.172l-6.586 6.586c-.39.39-.586.902-.586 1.414s.195 1.024.586 1.414a2 2 0 0 0 2.828 0z"/></symbol><symbol id="icon-modal-cl" viewBox="0 0 32 32"><path d="M32 3.223 28.777 0 16 12.777 3.223 0 0 3.223 12.777 16 0 28.777 3.223 32 16 19.223 28.777 32 32 28.777 19.223 16 32 3.223z"/></symbol><symbol id="icon-ice-coffee" viewBox="0 0 32 32"><path d="M10.763 22.352a.652.652 0 0 0-.652.652v2.641c0 .36.292.652.652.652h2.641c.36 0 .652-.292.652-.652v-2.641a.652.652 0 0 0-.652-.652h-2.641zm1.989 2.641h-1.337v-1.337h1.337v1.337zM20.882 0a4.408 4.408 0 0 0-4.403 4.403v.083h-5.277L10.991.917a.653.653 0 0 0-1.302.039l.001.04V.994l.207 3.492H7.368a.652.652 0 0 0-.651.69v-.002l1.32 23.452v2.722c0 .36.292.652.652.652h10.886c.36 0 .652-.292.652-.652v-2.722l.947-16.83.001-.037a.652.652 0 0 0-.614-.651h-.002a.653.653 0 0 0-.688.614l-.914 16.233H9.304l-.993-17.65h1.93l.565 9.555a.653.653 0 0 0 1.302-.039l-.001-.04v.002l-.561-9.478h2.815a.652.652 0 0 0 0-1.304h-2.892l-.19-3.213h5.2v.114c0 2.428 1.975 4.403 4.403 4.403s4.403-1.975 4.403-4.403v-1.5a4.408 4.408 0 0 0-4.403-4.403zM9.34 29.26h9.582v1.436H9.34V29.26zM8.237 9.003 8.056 5.79h1.917l.19 3.213H8.237zm11.339-.29a3.103 3.103 0 0 1-1.792-2.81v-1.5a3.103 3.103 0 0 1 2.825-3.087c.655.845.576 2.418-.219 3.41-.594.741-.949 1.734-.975 2.725-.011.448.044.873.16 1.263zm4.405-2.81a3.104 3.104 0 0 1-2.826 3.087c-.725-.914-.497-2.514.252-3.449.819-1.022 1.181-2.617.784-3.947a3.102 3.102 0 0 1 1.79 2.809v1.5zM15.72 23.402h.012a.65.65 0 0 0 .453-.183l1.901-1.834a.65.65 0 0 0 .016-.922l-1.834-1.901a.65.65 0 0 0-.922-.016l-1.901 1.834a.65.65 0 0 0-.016.922l1.834 1.901a.65.65 0 0 0 .457.199h.001zm.062-3.464.929.962-.962.929-.929-.962.962-.929z"/></symbol><symbol id="icon-ice-cream" viewBox="0 0 32 32"><path d="M19.657 7.149a.523.523 0 0 0 0 1.044c1.056 0 1.916.859 1.916 1.916a.522.522 0 0 0 1.044 0 2.964 2.964 0 0 0-2.96-2.96zm-5.081 1.106a2.949 2.949 0 0 0-2.306-1.106h-.008a.522.522 0 1 0 .001 1.044h.009c.582 0 1.126.261 1.493.717a.522.522 0 0 0 .406.195h.001a.524.524 0 0 0 .406-.852l.001.001zm1.297-6.563a.523.523 0 0 0 0 1.044c1.056 0 1.916.859 1.916 1.916a.522.522 0 0 0 1.044 0 2.964 2.964 0 0 0-2.96-2.96z"/><path d="M23.57 12.712a4.712 4.712 0 0 0 .788-2.603 4.711 4.711 0 0 0-3.727-4.6 4.707 4.707 0 0 0-4.632-5.51 4.707 4.707 0 0 0-4.632 5.51 4.71 4.71 0 0 0-3.727 4.6c0 .932.281 1.837.788 2.603a1.484 1.484 0 0 0-1.133 1.439v1.27c0 .817.665 1.482 1.482 1.482h.333l.686 3.623a.522.522 0 0 0 .513.425h.925l2.582 9.387c.269.979 1.166 1.662 2.181 1.662s1.912-.684 2.181-1.662l2.582-9.387h.925a.523.523 0 0 0 .513-.422l.001-.003.686-3.623h.333c.817 0 1.482-.665 1.482-1.482v-1.27c0-.697-.484-1.281-1.133-1.439zm-.256-2.603a3.67 3.67 0 0 1-1.045 2.559h-5.225a3.67 3.67 0 0 1-1.045-2.559c0-2.017 1.64-3.657 3.657-3.657s3.657 1.64 3.657 3.657zM16 1.045a3.66 3.66 0 0 1 3.588 4.364 4.697 4.697 0 0 0-3.587 1.747 4.707 4.707 0 0 0-3.59-1.748A3.66 3.66 0 0 1 16 1.045zm-3.657 5.407c1.239 0 2.388.628 3.061 1.655a4.607 4.607 0 0 0-.449 1.998v.004c0 .914.269 1.803.759 2.559H9.73a3.67 3.67 0 0 1-1.045-2.559 3.66 3.66 0 0 1 3.657-3.657zm4.83 23.609c-.145.526-.627.894-1.174.894s-1.029-.368-1.174-.894l-2.505-9.11h7.358l-2.506 9.11zm4.082-10.155h-10.51l-.569-3.004h11.648l-.569 3.004zm1.966-4.049H8.779a.437.437 0 0 1-.437-.437v-1.27c0-.241.196-.437.437-.437h14.442c.241 0 .437.196.437.437v1.27a.437.437 0 0 1-.437.437z"/></symbol><symbol id="icon-milkshake" viewBox="0 0 32 32"><path d="M24.523 1.956h-2.037a3.08 3.08 0 0 0-3.068 2.88l-.257 4.058a2.289 2.289 0 0 0-.959-.581l-.016-.004c.159-.303.253-.662.253-1.043v-.002c0-.953-.584-1.772-1.413-2.118.139-.272.221-.594.221-.935v-.25A3.966 3.966 0 0 0 13.286 0h-.772a.673.673 0 0 0 0 1.346h.393a.569.569 0 0 1 0 1.136h-1.608A1.917 1.917 0 0 0 9.55 5.171a2.297 2.297 0 0 0-1.357 2.094v.002c0 .381.093.74.259 1.056l-.006-.013a2.299 2.299 0 0 0-1.641 2.199v.002c0 .432.12.836.329 1.18l-.006-.01-.033.038a.668.668 0 0 0-.118.586l-.001-.005 3.225 12.434a4.01 4.01 0 0 0 2.221 2.644l-4.075 3.436a.673.673 0 0 0 .434 1.187H18.89a.673.673 0 0 0 .673-.673v-.001a.669.669 0 0 0-.265-.534l-.002-.001-3.887-3.277a4.011 4.011 0 0 0 2.559-2.78l3.225-12.434a.673.673 0 0 0-.651-.842h-.194l.413-6.536a1.732 1.732 0 0 1 1.725-1.62h2.037a.673.673 0 0 0 0-1.346zM11.298 3.827h1.608a1.916 1.916 0 0 0 1.914-1.914l-.001-.071a2.615 2.615 0 0 1 1.082 2.118v.248c0 .419-.341.76-.76.761l-3.842-.006a.569.569 0 0 1 0-1.136zm-.812 2.488h5.658c.523 0 .949.426.949.949s-.426.949-.949.949h-5.658c-.523 0-.949-.426-.949-.949s.426-.949.949-.949zM9.098 9.559h8.434c.523 0 .949.426.949.949s-.426.949-.949.949H9.098c-.523 0-.949-.426-.949-.949s.426-.949.949-.949zm1.523 21.096 3.213-2.709 3.213 2.709h-6.425zm6.045-6.259a2.668 2.668 0 0 1-5.164 0l-2.21-8.519h8.104a.673.673 0 0 0 0-1.346H8.943l-.448-1.729h11.178l-3.007 11.593z"/></symbol><symbol id="icon-delivery" viewBox="0 0 32 32"><path d="M17.032 14.968h-.185c-1.229.967-2.775 1.548-4.46 1.548s-3.231-.582-4.46-1.548H2.581v8.258h19.613v-8.258h-5.161z"/><path d="M30.452 25.29h-.516v-5.677h-2.113l-.516-5.161h-4.596V9.807h-2.607c.011-.171.026-.342.026-.516 0-2.08-.829-3.967-2.168-5.36l.362-.362.925.925.73-.73-2.581-2.581-.73.73.925.925-.396.396a7.645 7.645 0 0 0-4.27-1.659l-.023-.001v-.542h1.548V0h-4.129v1.032h1.548v.542a7.674 7.674 0 0 0-4.309 1.672l.015-.012-.396-.396.925-.925-.73-.73-2.581 2.581.73.73.925-.925.362.362a7.713 7.713 0 0 0-2.168 5.36c0 .174.015.345.026.516H2.063v15.484h-.516c-.854 0-1.548.695-1.548 1.548s.695 1.548 1.548 1.548h3.097C4.644 30.379 6.265 32 8.257 32s3.613-1.621 3.613-3.613h9.806c0 1.992 1.621 3.613 3.613 3.613s3.613-1.621 3.613-3.613h1.548c.854 0 1.548-.695 1.548-1.548s-.694-1.548-1.548-1.548zm-4.08-9.806.413 4.129H22.71v-4.129h3.662zM12.387 2.581c3.7 0 6.71 3.01 6.71 6.71s-3.01 6.71-6.71 6.71-6.71-3.01-6.71-6.71 3.01-6.71 6.71-6.71zM2.065 27.355h-.516a.517.517 0 0 1 0-1.032h.516v1.032zm6.193 3.613c-1.423 0-2.581-1.158-2.581-2.581s1.158-2.581 2.581-2.581 2.581 1.158 2.581 2.581-1.158 2.581-2.581 2.581zm3.461-3.613c-.445-1.491-1.828-2.581-3.461-2.581s-3.015 1.09-3.461 2.581H3.096V10.839H4.8c.719 3.529 3.847 6.194 7.586 6.194s6.867-2.664 7.586-6.194h1.704v16.516h-9.959zm13.571 3.613c-1.423 0-2.581-1.158-2.581-2.581s1.158-2.581 2.581-2.581 2.581 1.158 2.581 2.581-1.158 2.581-2.581 2.581zm3.613-3.613h-.152a3.618 3.618 0 0 0-3.461-2.581 3.598 3.598 0 0 0-2.581 1.09v-5.219h6.194v6.71zm1.549 0h-.516v-1.032h.516a.517.517 0 0 1 0 1.032z"/><path d="M8.258 26.839c-.854 0-1.548.695-1.548 1.548s.695 1.548 1.548 1.548 1.548-.695 1.548-1.548a1.55 1.55 0 0 0-1.548-1.548zm0 2.064a.517.517 0 1 1 .001-1.033.517.517 0 0 1-.001 1.033zm17.032-2.064c-.854 0-1.548.695-1.548 1.548s.695 1.548 1.548 1.548 1.548-.695 1.548-1.548a1.55 1.55 0 0 0-1.548-1.548zm0 2.064a.517.517 0 1 1 .001-1.033.517.517 0 0 1-.001 1.033zM10.839 9.29c0 .854.695 1.548 1.548 1.548s1.548-.695 1.548-1.548-.695-1.548-1.548-1.548c-.088 0-.172.012-.257.026L9.165 4.31l-.784.672 2.835 3.307a1.536 1.536 0 0 0-.378 1.002zm2.064 0a.517.517 0 0 1-.516.516c-.284 0-.516-.232-.516-.516s.232-.516.516-.516a.517.517 0 0 1 .516.516zm-.986 5.654.085-1.029c-2.388-.197-4.259-2.229-4.259-4.625 0-1.134.418-2.229 1.177-3.082l-.771-.686A5.67 5.67 0 0 0 6.711 9.29c0 2.93 2.287 5.414 5.207 5.654z"/></symbol><symbol id="icon-cafe" viewBox="0 0 32 32"><path d="M30.4 0h-9.067c-.293 0-.533.24-.533.533s.24.533.533.533h9.066c.293 0 .533.24.533.533v.533h-8c-.293 0-.533.24-.533.533s.24.533.533.533h8v3.733h-6.933c-.293 0-.533.24-.533.533s.24.533.533.533h6.933v.533c0 .293-.24.533-.533.533h-6.933c-.293 0-.533.24-.533.533s.24.533.533.533h6.547l.713 2.133H18.553A6.412 6.412 0 0 0 22.4 6.395c0-3.527-2.873-6.4-6.4-6.4s-6.4 2.873-6.4 6.4c0 2.62 1.587 4.88 3.847 5.867H1.274l.713-2.133h7.08c.293 0 .533-.24.533-.533s-.24-.533-.533-.533H1.6a.535.535 0 0 1-.533-.533v-.533H8c.293 0 .533-.24.533-.533s-.24-.533-.533-.533H1.067V3.198h8c.293 0 .533-.24.533-.533s-.24-.533-.533-.533h-8v-.533c0-.293.24-.533.533-.533h9.6c.293 0 .533-.24.533-.533S11.493 0 11.2 0H1.6C.72 0 0 .72 0 1.6v6.933a1.6 1.6 0 0 0 .913 1.44l-.887 2.66c-.053.16-.027.34.073.48s.26.22.433.22h.533v15.566c-.62.22-1.067.807-1.067 1.5v1.067c0 .293.24.533.533.533h30.933c.293 0 .533-.24.533-.533v-1.067c0-.693-.447-1.28-1.067-1.5V13.333h.533c.173 0 .333-.08.433-.22s.127-.32.073-.48l-.887-2.66a1.6 1.6 0 0 0 .913-1.44V1.6c0-.88-.72-1.6-1.6-1.6zM10.667 6.4c0-2.94 2.393-5.333 5.333-5.333S21.333 3.46 21.333 6.4 18.94 11.733 16 11.733 10.667 9.34 10.667 6.4zm-8.533 6.933h27.733v15.466H19.201V14.933a.535.535 0 0 0-.533-.533h-5.333a.535.535 0 0 0-.533.533v13.866H2.136V13.333zm11.733 11.2v-1.067h4.267v1.067h-4.267zm4.266 1.067v3.2h-4.267v-3.2h4.267zm-4.266-3.2v-6.933h4.267V22.4h-4.267zm17.066 8.533H1.067V30.4c0-.293.24-.533.533-.533h28.8c.293 0 .533.24.533.533v.533z"/><path d="M11.2 14.4H3.733a.535.535 0 0 0-.533.533v11.733c0 .293.24.533.533.533H11.2c.293 0 .533-.24.533-.533V14.933a.535.535 0 0 0-.533-.533zm-.533 11.733h-6.4v-1.067h6.4v1.067zm0-2.133h-6.4v-8.533h2.667v2.207a2.13 2.13 0 0 0-1.6 2.06c0 .293.24.533.533.533h3.2c.293 0 .533-.24.533-.533 0-.993-.68-1.82-1.6-2.06v-2.207h2.667V24zm-3.2-5.333c.393 0 .74.213.92.533H6.54c.187-.32.533-.533.927-.533zM28.266 14.4h-7.467a.535.535 0 0 0-.533.533v11.733c0 .293.24.533.533.533h7.467c.293 0 .533-.24.533-.533V14.933a.535.535 0 0 0-.533-.533zm-.533 11.733h-6.4v-1.067h6.4v1.067zm0-2.133h-6.4v-8.533H24v2.207a2.13 2.13 0 0 0-1.6 2.06c0 .293.24.533.533.533h3.2c.293 0 .533-.24.533-.533 0-.993-.68-1.82-1.6-2.06v-2.207h2.667V24zm-3.2-5.333c.393 0 .74.213.92.533h-1.847c.187-.32.533-.533.927-.533zM18.627 4.32C18.4 3.08 17.307 2.133 16 2.133s-2.4.947-2.627 2.187a2.133 2.133 0 0 0-1.64 2.08c0 .993.68 1.827 1.6 2.067v1.667c0 .293.24.533.533.533h4.267c.293 0 .533-.24.533-.533V8.467c.92-.24 1.6-1.073 1.6-2.067 0-1.007-.7-1.853-1.64-2.08zm-.494 3.147A.535.535 0 0 0 17.6 8v1.6h-3.2V8a.535.535 0 0 0-.533-.533A1.07 1.07 0 0 1 12.8 6.4c0-.553.42-1 .96-1.053.687.353.667.86.653.967-.053.287.14.56.427.613.033.007.067.007.1.007.253 0 .473-.18.52-.433.087-.453-.047-1.393-1.027-2 .14-.74.787-1.3 1.567-1.3.88 0 1.6.72 1.6 1.6 0 .293.24.533.533.533.587 0 1.067.48 1.067 1.067s-.48 1.067-1.067 1.067z"/></symbol><symbol id="icon-close-2" viewBox="0 0 40 40"><path d="M29.667 12.88 27.787 11l-7.454 7.453L12.88 11 11 12.88l7.453 7.453L11 27.787l1.88 1.88 7.453-7.454 7.454 7.454 1.88-1.88-7.454-7.454 7.454-7.453Z"/></symbol></defs></svg>