<svg width="201" height="50" fill="none" xmlns="http://www.w3.org/2000/svg"><g clip-path="url('#clip0_67256_6')"><path d="M0 25C0 11.193 11.193 0 25 0s25 11.193 25 25-11.193 25-25 25S0 38.807 0 25Z" fill="#D41443"/><path d="M26.5 34v-2.5h5V34a2.5 2.5 0 1 1-5 0Z" stroke="#fff" stroke-width="3"/><path d="M26.5 34v-2.5h5V34a2.5 2.5 0 1 1-5 0Z" stroke="#fff" stroke-width="3"/><path d="M26.5 34v-2.5h5V34a2.5 2.5 0 1 1-5 0Z" stroke="#fff" stroke-width="3"/><rect x="8.5" y="25.5" width="33" height="5" rx="2.5" stroke="#fff" stroke-width="3"/><rect x="8.5" y="25.5" width="33" height="5" rx="2.5" stroke="#fff" stroke-width="3"/><rect x="8.5" y="25.5" width="33" height="5" rx="2.5" stroke="#fff" stroke-width="3"/><g clip-path="url('#clip1_67256_6')"><path d="M12.5 7V-5a8.5 8.5 0 0 1 8.5-8.5h8A8.5 8.5 0 0 1 37.5-5V7c0 6.903-5.596 12.5-12.5 12.5-6.903 0-12.5-5.597-12.5-12.5Z" stroke="#fff" stroke-width="3"/></g><path d="M37.5 23v12a8.5 8.5 0 0 1-8.5 8.5h-8a8.5 8.5 0 0 1-8.5-8.5V23c0-6.904 5.597-12.5 12.5-12.5 6.904 0 12.5 5.596 12.5 12.5Z" stroke="#fff" stroke-width="3"/><rect x="30" y="28" width="7" height="2" rx="1" transform="rotate(90 30 28)" fill="#D41443"/><path d="M18.5 43.5h13V54a6.5 6.5 0 0 1-13 0V43.5Z" stroke="#fff" stroke-width="3"/><rect x="10" y="27" width="30" height="2" rx="1" fill="#D41443"/></g><path d="M77.656 33.924c0 .176-.488.32-1.464.432a30.14 30.14 0 0 1-2.952.144c-.976 0-1.6-.04-1.872-.12-.272-.096-.408-.248-.408-.456V18.996c0-.352.464-.696 1.392-1.032.928-.352 1.968-.528 3.12-.528 1.024 0 1.696.216 2.016.648.112.16.168.32.168.48v15.36Zm14.673.408c-.64.144-1.296.24-1.968.288-.656.064-1.304.096-1.944.096a17.16 17.16 0 0 1-1.464-.048 11.09 11.09 0 0 1-1.344-.24 7.226 7.226 0 0 1-1.536-.528c-.464-.224-.96-.552-1.488-.984a6.013 6.013 0 0 1-1.296-1.536c-.816-1.376-1.224-3.152-1.224-5.328 0-1.456.224-2.744.672-3.864.464-1.12 1.016-1.984 1.656-2.592a8.047 8.047 0 0 1 2.232-1.464c1.344-.608 2.696-.912 4.056-.912 1.952 0 3.352.16 4.2.48.384.144.728.368 1.032.672.304.304.456.744.456 1.32 0 .576-.144 1.304-.432 2.184-.272.88-.672 1.32-1.2 1.32-.16 0-.752-.128-1.776-.384s-1.72-.384-2.088-.384c-.56 0-1.04.312-1.44.936-.384.624-.576 1.512-.576 2.664 0 1.152.168 2.048.504 2.688.352.64.808.96 1.368.96.4 0 1.12-.16 2.16-.48 1.056-.336 1.672-.504 1.848-.504.496 0 .88.456 1.152 1.368.288.912.432 1.648.432 2.208 0 .56-.176 1.008-.528 1.344-.336.32-.824.56-1.464.72Zm16.614.168H98.767c-.784 0-1.312-.056-1.584-.168-.272-.112-.408-.288-.408-.528V18.612c0-.416.184-.712.552-.888.384-.176 1.064-.264 2.04-.264h9.648c.336 0 .504.56.504 1.68 0 1.104-.072 1.952-.216 2.544-.144.576-.336.864-.576.864-1.04 0-2.792-.104-5.256-.312v1.608c2.368-.096 3.912-.144 4.632-.144.432 0 .648.504.648 1.512s-.088 1.776-.264 2.304c-.16.512-.384.768-.672.768l-4.344-.096v1.536c2.784-.208 4.704-.312 5.76-.312.336 0 .504.56.504 1.68 0 1.12-.072 1.968-.216 2.544-.144.576-.336.864-.576.864Zm15.224-.168c-.64.144-1.296.24-1.968.288-.656.064-1.304.096-1.944.096a17.16 17.16 0 0 1-1.464-.048 11.09 11.09 0 0 1-1.344-.24 7.226 7.226 0 0 1-1.536-.528c-.464-.224-.96-.552-1.488-.984a6.013 6.013 0 0 1-1.296-1.536c-.816-1.376-1.224-3.152-1.224-5.328 0-1.456.224-2.744.672-3.864.464-1.12 1.016-1.984 1.656-2.592a8.047 8.047 0 0 1 2.232-1.464c1.344-.608 2.696-.912 4.056-.912 1.952 0 3.352.16 4.2.48.384.144.728.368 1.032.672.304.304.456.744.456 1.32 0 .576-.144 1.304-.432 2.184-.272.88-.672 1.32-1.2 1.32-.16 0-.752-.128-1.776-.384s-1.72-.384-2.088-.384c-.56 0-1.04.312-1.44.936-.384.624-.576 1.512-.576 2.664 0 1.152.168 2.048.504 2.688.352.64.808.96 1.368.96.4 0 1.12-.16 2.16-.48 1.056-.336 1.672-.504 1.848-.504.496 0 .88.456 1.152 1.368.288.912.432 1.648.432 2.208 0 .56-.176 1.008-.528 1.344-.336.32-.824.56-1.464.72Zm11.166-.528c0 .208-.488.376-1.464.504s-1.96.192-2.952.192c-.976 0-1.608-.056-1.896-.168-.272-.112-.408-.288-.408-.528V18.372c0-.416.52-.712 1.56-.888 1.056-.176 2.384-.264 3.984-.264s2.632.008 3.096.024c.48 0 1.04.024 1.68.072.64.048 1.144.128 1.512.24.384.112.8.256 1.248.432.464.176.824.408 1.08.696.256.272.504.6.744.984.432.688.648 1.672.648 2.952 0 1.264-.216 2.336-.648 3.216-.416.864-.976 1.52-1.68 1.968 1.84 2.896 2.76 4.736 2.76 5.52 0 .784-1.576 1.176-4.728 1.176-.912 0-1.544-.04-1.896-.12-.352-.08-.576-.256-.672-.528l-1.56-4.944-.408-.024v4.92Zm0-8.616h.624c.928 0 1.392-.72 1.392-2.16 0-.736-.128-1.256-.384-1.56-.24-.304-.52-.456-.84-.456h-.792v4.176Zm23.348 9.312h-10.176c-.784 0-1.312-.056-1.584-.168-.272-.112-.408-.288-.408-.528V18.612c0-.416.184-.712.552-.888.384-.176 1.064-.264 2.04-.264h9.648c.336 0 .504.56.504 1.68 0 1.104-.072 1.952-.216 2.544-.144.576-.336.864-.576.864-1.04 0-2.792-.104-5.256-.312v1.608c2.368-.096 3.912-.144 4.632-.144.432 0 .648.504.648 1.512s-.088 1.776-.264 2.304c-.16.512-.384.768-.672.768l-4.344-.096v1.536c2.784-.208 4.704-.312 5.76-.312.336 0 .504.56.504 1.68 0 1.12-.072 1.968-.216 2.544-.144.576-.336.864-.576.864Zm9.825-1.224c-.032.464-.28.784-.744.96-.448.176-1.264.264-2.448.264s-2.176-.104-2.976-.312c-.784-.224-1.176-.504-1.176-.84 0-.384.712-2.832 2.136-7.344 1.424-4.528 2.24-7.136 2.448-7.824.08-.208.72-.376 1.92-.504a33.11 33.11 0 0 1 3.888-.216c1.392 0 2.16.24 2.304.72 3.024 10.048 4.536 15.152 4.536 15.312 0 .16-.096.32-.288.48-.448.352-1.336.528-2.664.528-2.832 0-4.28-.336-4.344-1.008l-.168-1.56h-2.304l-.12 1.344Zm1.92-5.904-.36-4.32h-.528l-.408 4.32h1.296Zm13.59 7.128h-1.752c-.752 0-1.264-.056-1.536-.168-.272-.112-.408-.288-.408-.528V18.66c0-.368.488-.656 1.464-.864a14.356 14.356 0 0 1 3.168-.336c1.12 0 1.92.144 2.4.432.48.288.76.592.84.912l1.632 6.336h.216l1.536-6.048c.112-.432.632-.808 1.56-1.128.944-.336 1.976-.504 3.096-.504s1.944.088 2.472.264c.544.176.816.4.816.672v15.408c0 .208-.456.376-1.368.504-.912.128-2.024.192-3.336.192-1.312 0-1.968-.232-1.968-.696 0-1.264.136-3.512.408-6.744h-.216l-1.248 6.264c-.048.24-.248.416-.6.528-.336.112-.848.168-1.536.168-.688 0-1.112-.048-1.272-.144-.144-.096-.24-.28-.288-.552L186.8 27.06h-.216c.288 3.296.432 5.544.432 6.744 0 .416-1 .648-3 .696Z" fill="#D41443"/><defs><clipPath id="clip0_67256_6"><path d="M0 25C0 11.193 11.193 0 25 0s25 11.193 25 25-11.193 25-25 25S0 38.807 0 25Z" fill="#fff"/></clipPath><clipPath id="clip1_67256_6"><path d="M11 23c0-7.732 6.268-14 14-14s14 6.268 14 14v12c0 5.523-4.477 10-10 10h-8c-5.523 0-10-4.477-10-10V23Z" fill="#fff"/></clipPath></defs></svg>