<svg version="1.0" xmlns="http://www.w3.org/2000/svg" width="401.333" height="401.333" viewBox="0 0 301 301"><path d="M135 .6c-1.4.2-6.8 1.1-12 2C102.7 6 77.7 16.8 60.9 29.4c-29.8 22.5-50 54.1-58.1 91.3-2.9 13.5-3.2 41.2-.4 55.8 9.4 50.4 42.3 91.5 89.2 111.6 5 2.1 9.4 3.9 9.8 3.9.3 0 .6-6.1.6-13.5V265l-5.2-2.6c-7.1-3.6-19.5-16.3-23.6-24.1-5.1-9.7-7.2-19.6-7.2-33.7v-12.1l-5.2-1.3c-17.5-4.1-24.4-23.6-13.7-38.2 2.5-3.3 12.8-9 16.4-9 2.1 0 2.2-.6 2.8-10.3 1.4-22.7 10-41.3 26.5-56.9 26.8-25.3 66.4-29.9 99.2-11.5 10.2 5.7 25 20.6 30.7 30.7 7.2 12.8 11.3 28 11.3 41.7 0 5.2.3 6.3 1.6 6.3 7.2 0 16.4 6.6 20 14.4 4.1 8.8 2.8 17.6-3.9 25.2-4.5 5.1-7.8 7.1-13.6 8l-4.1.7v11.6c0 14.2-1.9 23.3-6.6 32.9-4.5 9.2-14 19.5-22.8 24.6l-6.6 3.9v26.8l2.3-.7c18.2-5.8 41-20.4 56.7-36.4 37-37.7 51.3-92 37.9-143.6-10.3-39.8-38.6-75-75.9-94.3-22-11.4-40-16-65-16.6-9.1-.2-17.6-.2-19 .1z"/><path d="M136 73.5c-11.5 2.6-32.4 14.4-30.6 17.3 1.8 3 16 11.1 24.2 13.8 7.9 2.6 10.2 2.9 20.9 2.8 10.2 0 13.2-.5 20.1-2.7 7.3-2.4 15.8-7.2 22.4-12.6l2.5-2.1-3-2.5c-14.9-12.5-37.9-18.2-56.5-14z"/><path d="M90.5 109.3c-3.9 9-5.6 15.8-6.2 25.4l-.6 9.3H216v-6.3c0-8.5-2.3-18.6-6.1-26.7l-3.1-6.8-6.5 4.9c-8.4 6.4-16 10.2-27 13.6-7.7 2.3-10.6 2.6-22.8 2.7-11.7 0-15.3-.3-21.9-2.2-11-3.2-20.9-8-28.9-14l-6.8-5.2-2.4 5.3zM62 164c-2.7 2.7-2.6 6.5.2 8.4 2 1.4 8.8 1.6 54 1.6H168v16.4c0 15.9.1 16.5 2.2 18 3.2 2.2 6.4 2 8.2-.6 1.3-1.8 1.6-5.4 1.6-18V174h28.4c28.3 0 28.5 0 30-2.2 2.1-3 2-5.4-.4-7.8-2-2-3.3-2-88-2s-86 0-88 2z"/><path d="M84.2 205.7c.4 11.4.8 14.8 2.7 19.6 4.6 11.6 14.7 20.9 26.8 24.7 5.9 1.8 9.3 2 36.3 2 27 0 30.4-.2 36.3-2 8.7-2.7 15.2-7.3 20.9-14.8 6.7-8.8 8.8-16.2 8.8-31.3V192h-18v7.6c0 4.2-.6 9.5-1.2 11.8-1.7 5.6-10 14.1-15.3 15.5-8.8 2.4-17.9.3-23.9-5.5-5.7-5.6-6.9-8.8-7.4-19.7l-.4-9.7h-66l.4 13.7zM120 283.4c0 15.5-1.2 14 12 15.6 14.3 1.7 32.4 1.1 45.3-1.6l2.7-.6V270h-60v13.4z"/></svg>