<svg width="21" height="20" viewBox="0 0 21 20" fill="none" xmlns="http://www.w3.org/2000/svg">
<g filter="url(#filter0_d_57354_322)">
<path d="M16.2399 5.77539C16.4646 5.53163 16.4429 5.15801 16.1914 4.94111L10.6519 0.159738C10.4004 -0.0571627 9.99731 -0.052619 9.75117 0.169981L4.19278 5.19603C3.94663 5.41863 3.93455 5.79177 4.16603 6.02912L4.30539 6.17228C4.53659 6.40963 4.91029 6.43793 5.13955 6.2353L5.55495 5.86834V11.2407C5.55495 11.5703 5.82571 11.8372 6.15961 11.8372H8.32629C8.66019 11.8372 8.93095 11.5703 8.93095 11.2407V7.48221H11.6946V11.2407C11.6898 11.5701 11.9287 11.8369 12.2626 11.8369H14.5587C14.8926 11.8369 15.1634 11.5701 15.1634 11.2405V5.94398C15.1634 5.94398 15.2781 6.04315 15.4197 6.16587C15.561 6.28835 15.8577 6.19014 16.0824 5.94614L16.2399 5.77539Z" fill="#D31342"/>
</g>
<defs>
<filter id="filter0_d_57354_322" x="0" y="0" width="20.3951" height="19.8372" filterUnits="userSpaceOnUse" color-interpolation-filters="sRGB">
<feFlood flood-opacity="0" result="BackgroundImageFix"/>
<feColorMatrix in="SourceAlpha" type="matrix" values="0 0 0 0 0 0 0 0 0 0 0 0 0 0 0 0 0 0 127 0" result="hardAlpha"/>
<feOffset dy="4"/>
<feGaussianBlur stdDeviation="2"/>
<feComposite in2="hardAlpha" operator="out"/>
<feColorMatrix type="matrix" values="0 0 0 0 0 0 0 0 0 0 0 0 0 0 0 0 0 0 0.25 0"/>
<feBlend mode="normal" in2="BackgroundImageFix" result="effect1_dropShadow_57354_322"/>
<feBlend mode="normal" in="SourceGraphic" in2="effect1_dropShadow_57354_322" result="shape"/>
</filter>
</defs>
</svg>
