<svg width="201" height="50" viewBox="0 0 201 50" fill="none" xmlns="http://www.w3.org/2000/svg">
<g clip-path="url(#clip0_67256_6)">
<path d="M0 25C0 11.1929 11.1929 0 25 0V0C38.8071 0 50 11.1929 50 25V25C50 38.8071 38.8071 50 25 50V50C11.1929 50 0 38.8071 0 25V25Z" fill="#D41443"/>
<path d="M26.5002 33.9998V31.4998H31.5002V33.9998C31.5002 35.3805 30.381 36.4998 29.0002 36.4998C27.6195 36.4998 26.5002 35.3805 26.5002 33.9998Z" stroke="white" stroke-width="3"/>
<path d="M26.5002 33.9998V31.4998H31.5002V33.9998C31.5002 35.3805 30.381 36.4998 29.0002 36.4998C27.6195 36.4998 26.5002 35.3805 26.5002 33.9998Z" stroke="white" stroke-width="3"/>
<path d="M26.5002 33.9998V31.4998H31.5002V33.9998C31.5002 35.3805 30.381 36.4998 29.0002 36.4998C27.6195 36.4998 26.5002 35.3805 26.5002 33.9998Z" stroke="white" stroke-width="3"/>
<rect x="8.50024" y="25.4998" width="33" height="5" rx="2.5" stroke="white" stroke-width="3"/>
<rect x="8.50024" y="25.4998" width="33" height="5" rx="2.5" stroke="white" stroke-width="3"/>
<rect x="8.50024" y="25.4998" width="33" height="5" rx="2.5" stroke="white" stroke-width="3"/>
<g clip-path="url(#clip1_67256_6)">
<path d="M12.5002 6.99976L12.5002 -5.00024C12.5002 -9.69466 16.3058 -13.5002 21.0002 -13.5002L29.0002 -13.5002C33.6947 -13.5002 37.5002 -9.69466 37.5002 -5.00024L37.5002 6.99976C37.5002 13.9033 31.9038 19.4998 25.0002 19.4998C18.0967 19.4998 12.5002 13.9033 12.5002 6.99976Z" stroke="white" stroke-width="3"/>
</g>
<path d="M37.5002 22.9998V34.9998C37.5002 39.6942 33.6947 43.4998 29.0002 43.4998H21.0002C16.3058 43.4998 12.5002 39.6942 12.5002 34.9998V22.9998C12.5002 16.0962 18.0967 10.4998 25.0002 10.4998C31.9038 10.4998 37.5002 16.0962 37.5002 22.9998Z" stroke="white" stroke-width="3"/>
<rect x="30.0002" y="27.9998" width="7" height="2" rx="1" transform="rotate(90 30.0002 27.9998)" fill="#D41443"/>
<path d="M18.5002 43.4998H31.5002V53.9998C31.5002 57.5896 28.5901 60.4998 25.0002 60.4998C21.4104 60.4998 18.5002 57.5896 18.5002 53.9998V43.4998Z" stroke="white" stroke-width="3"/>
<rect x="10.0002" y="26.9998" width="30" height="2" rx="1" fill="#D41443"/>
</g>
<path d="M77.656 33.924C77.656 34.1 77.168 34.244 76.192 34.356C75.216 34.452 74.232 34.5 73.24 34.5C72.264 34.5 71.64 34.46 71.368 34.38C71.096 34.284 70.96 34.132 70.96 33.924V18.996C70.96 18.644 71.424 18.3 72.352 17.964C73.28 17.612 74.32 17.436 75.472 17.436C76.496 17.436 77.168 17.652 77.488 18.084C77.6 18.244 77.656 18.404 77.656 18.564V33.924ZM92.329 34.332C91.689 34.476 91.033 34.572 90.361 34.62C89.705 34.684 89.057 34.716 88.417 34.716C87.793 34.716 87.305 34.7 86.953 34.668C86.617 34.636 86.169 34.556 85.609 34.428C85.049 34.3 84.537 34.124 84.073 33.9C83.609 33.676 83.113 33.348 82.585 32.916C82.073 32.484 81.641 31.972 81.289 31.38C80.473 30.004 80.065 28.228 80.065 26.052C80.065 24.596 80.289 23.308 80.737 22.188C81.201 21.068 81.753 20.204 82.393 19.596C83.049 18.988 83.793 18.5 84.625 18.132C85.969 17.524 87.321 17.22 88.681 17.22C90.633 17.22 92.033 17.38 92.881 17.7C93.265 17.844 93.609 18.068 93.913 18.372C94.217 18.676 94.369 19.116 94.369 19.692C94.369 20.268 94.225 20.996 93.937 21.876C93.665 22.756 93.265 23.196 92.737 23.196C92.577 23.196 91.985 23.068 90.961 22.812C89.937 22.556 89.241 22.428 88.873 22.428C88.313 22.428 87.833 22.74 87.433 23.364C87.049 23.988 86.857 24.876 86.857 26.028C86.857 27.18 87.025 28.076 87.361 28.716C87.713 29.356 88.169 29.676 88.729 29.676C89.129 29.676 89.849 29.516 90.889 29.196C91.945 28.86 92.561 28.692 92.737 28.692C93.233 28.692 93.617 29.148 93.889 30.06C94.177 30.972 94.321 31.708 94.321 32.268C94.321 32.828 94.145 33.276 93.793 33.612C93.457 33.932 92.969 34.172 92.329 34.332ZM108.943 34.5H98.767C97.983 34.5 97.455 34.444 97.183 34.332C96.911 34.22 96.775 34.044 96.775 33.804V18.612C96.775 18.196 96.959 17.9 97.327 17.724C97.711 17.548 98.391 17.46 99.367 17.46H109.015C109.351 17.46 109.519 18.02 109.519 19.14C109.519 20.244 109.447 21.092 109.303 21.684C109.159 22.26 108.967 22.548 108.727 22.548C107.687 22.548 105.935 22.444 103.471 22.236V23.844C105.839 23.748 107.383 23.7 108.103 23.7C108.535 23.7 108.751 24.204 108.751 25.212C108.751 26.22 108.663 26.988 108.487 27.516C108.327 28.028 108.103 28.284 107.815 28.284L103.471 28.188V29.724C106.255 29.516 108.175 29.412 109.231 29.412C109.567 29.412 109.735 29.972 109.735 31.092C109.735 32.212 109.663 33.06 109.519 33.636C109.375 34.212 109.183 34.5 108.943 34.5ZM124.167 34.332C123.527 34.476 122.871 34.572 122.199 34.62C121.543 34.684 120.895 34.716 120.255 34.716C119.631 34.716 119.143 34.7 118.791 34.668C118.455 34.636 118.007 34.556 117.447 34.428C116.887 34.3 116.375 34.124 115.911 33.9C115.447 33.676 114.951 33.348 114.423 32.916C113.911 32.484 113.479 31.972 113.127 31.38C112.311 30.004 111.903 28.228 111.903 26.052C111.903 24.596 112.127 23.308 112.575 22.188C113.039 21.068 113.591 20.204 114.231 19.596C114.887 18.988 115.631 18.5 116.463 18.132C117.807 17.524 119.159 17.22 120.519 17.22C122.471 17.22 123.871 17.38 124.719 17.7C125.103 17.844 125.447 18.068 125.751 18.372C126.055 18.676 126.207 19.116 126.207 19.692C126.207 20.268 126.063 20.996 125.775 21.876C125.503 22.756 125.103 23.196 124.575 23.196C124.415 23.196 123.823 23.068 122.799 22.812C121.775 22.556 121.079 22.428 120.711 22.428C120.151 22.428 119.671 22.74 119.271 23.364C118.887 23.988 118.695 24.876 118.695 26.028C118.695 27.18 118.863 28.076 119.199 28.716C119.551 29.356 120.007 29.676 120.567 29.676C120.967 29.676 121.687 29.516 122.727 29.196C123.783 28.86 124.399 28.692 124.575 28.692C125.071 28.692 125.455 29.148 125.727 30.06C126.015 30.972 126.159 31.708 126.159 32.268C126.159 32.828 125.983 33.276 125.631 33.612C125.295 33.932 124.807 34.172 124.167 34.332ZM135.333 33.804C135.333 34.012 134.845 34.18 133.869 34.308C132.893 34.436 131.909 34.5 130.917 34.5C129.941 34.5 129.309 34.444 129.021 34.332C128.749 34.22 128.613 34.044 128.613 33.804V18.372C128.613 17.956 129.133 17.66 130.173 17.484C131.229 17.308 132.557 17.22 134.157 17.22C135.757 17.22 136.789 17.228 137.253 17.244C137.733 17.244 138.293 17.268 138.933 17.316C139.573 17.364 140.077 17.444 140.445 17.556C140.829 17.668 141.245 17.812 141.693 17.988C142.157 18.164 142.517 18.396 142.773 18.684C143.029 18.956 143.277 19.284 143.517 19.668C143.949 20.356 144.165 21.34 144.165 22.62C144.165 23.884 143.949 24.956 143.517 25.836C143.101 26.7 142.541 27.356 141.837 27.804C143.677 30.7 144.597 32.54 144.597 33.324C144.597 34.108 143.021 34.5 139.869 34.5C138.957 34.5 138.325 34.46 137.973 34.38C137.621 34.3 137.397 34.124 137.301 33.852L135.741 28.908L135.333 28.884V33.804ZM135.333 25.188H135.957C136.885 25.188 137.349 24.468 137.349 23.028C137.349 22.292 137.221 21.772 136.965 21.468C136.725 21.164 136.445 21.012 136.125 21.012H135.333V25.188ZM158.681 34.5H148.505C147.721 34.5 147.193 34.444 146.921 34.332C146.649 34.22 146.513 34.044 146.513 33.804V18.612C146.513 18.196 146.697 17.9 147.065 17.724C147.449 17.548 148.129 17.46 149.105 17.46H158.753C159.089 17.46 159.257 18.02 159.257 19.14C159.257 20.244 159.185 21.092 159.041 21.684C158.897 22.26 158.705 22.548 158.465 22.548C157.425 22.548 155.673 22.444 153.209 22.236V23.844C155.577 23.748 157.121 23.7 157.841 23.7C158.273 23.7 158.489 24.204 158.489 25.212C158.489 26.22 158.401 26.988 158.225 27.516C158.065 28.028 157.841 28.284 157.553 28.284L153.209 28.188V29.724C155.993 29.516 157.913 29.412 158.969 29.412C159.305 29.412 159.473 29.972 159.473 31.092C159.473 32.212 159.401 33.06 159.257 33.636C159.113 34.212 158.921 34.5 158.681 34.5ZM168.506 33.276C168.474 33.74 168.226 34.06 167.762 34.236C167.314 34.412 166.498 34.5 165.314 34.5C164.13 34.5 163.138 34.396 162.338 34.188C161.554 33.964 161.162 33.684 161.162 33.348C161.162 32.964 161.874 30.516 163.298 26.004C164.722 21.476 165.538 18.868 165.746 18.18C165.826 17.972 166.466 17.804 167.666 17.676C168.882 17.532 170.178 17.46 171.554 17.46C172.946 17.46 173.714 17.7 173.858 18.18C176.882 28.228 178.394 33.332 178.394 33.492C178.394 33.652 178.298 33.812 178.106 33.972C177.658 34.324 176.77 34.5 175.442 34.5C172.61 34.5 171.162 34.164 171.098 33.492L170.93 31.932H168.626L168.506 33.276ZM170.426 27.372L170.066 23.052H169.538L169.13 27.372H170.426ZM184.016 34.5C183.616 34.5 183.032 34.5 182.264 34.5C181.512 34.5 181 34.444 180.728 34.332C180.456 34.22 180.32 34.044 180.32 33.804V18.66C180.32 18.292 180.808 18.004 181.784 17.796C182.776 17.572 183.832 17.46 184.952 17.46C186.072 17.46 186.872 17.604 187.352 17.892C187.832 18.18 188.112 18.484 188.192 18.804L189.824 25.14H190.04L191.576 19.092C191.688 18.66 192.208 18.284 193.136 17.964C194.08 17.628 195.112 17.46 196.232 17.46C197.352 17.46 198.176 17.548 198.704 17.724C199.248 17.9 199.52 18.124 199.52 18.396V33.804C199.52 34.012 199.064 34.18 198.152 34.308C197.24 34.436 196.128 34.5 194.816 34.5C193.504 34.5 192.848 34.268 192.848 33.804C192.848 32.54 192.984 30.292 193.256 27.06H193.04L191.792 33.324C191.744 33.564 191.544 33.74 191.192 33.852C190.856 33.964 190.344 34.02 189.656 34.02C188.968 34.02 188.544 33.972 188.384 33.876C188.24 33.78 188.144 33.596 188.096 33.324L186.8 27.06H186.584C186.872 30.356 187.016 32.604 187.016 33.804C187.016 34.22 186.016 34.452 184.016 34.5Z" fill="#D41443"/>
<defs>
<clipPath id="clip0_67256_6">
<path d="M0 25C0 11.1929 11.1929 0 25 0V0C38.8071 0 50 11.1929 50 25V25C50 38.8071 38.8071 50 25 50V50C11.1929 50 0 38.8071 0 25V25Z" fill="white"/>
</clipPath>
<clipPath id="clip1_67256_6">
<path d="M11.0002 22.9998C11.0002 15.2678 17.2683 8.99976 25.0002 8.99976V8.99976C32.7322 8.99976 39.0002 15.2678 39.0002 22.9998V34.9998C39.0002 40.5226 34.5231 44.9998 29.0002 44.9998H21.0002C15.4774 44.9998 11.0002 40.5226 11.0002 34.9998V22.9998Z" fill="white"/>
</clipPath>
</defs>
</svg>
