<svg
  aria-hidden="true"
  style="position: absolute; width: 0; height: 0; overflow: hidden;"
  version="1.1"
  xmlns="http://www.w3.org/2000/svg"
  xmlns:xlink="http://www.w3.org/1999/xlink"
>
<defs>
<symbol id="icon-pagination" viewBox="0 0 34 32">
<path fill="#d31342" style="fill: var(--color2, #d31342)" d="M25.984 9.241c0.36-0.39 0.325-0.988-0.078-1.335l-8.863-7.65c-0.402-0.347-1.047-0.34-1.441 0.016l-8.893 8.042c-0.394 0.356-0.413 0.953-0.043 1.333l0.223 0.229c0.37 0.38 0.968 0.425 1.335 0.101l0.665-0.587v8.596c0 0.527 0.433 0.954 0.967 0.954h3.467c0.534 0 0.967-0.427 0.967-0.954v-6.014h4.422v6.014c-0.008 0.527 0.375 0.954 0.909 0.954h3.674c0.534 0 0.968-0.427 0.968-0.954v-8.474c0 0 0.184 0.159 0.41 0.355s0.701 0.039 1.060-0.352l0.252-0.273z"></path>
</symbol>
<symbol id="burger" viewBox="0 0 48 32">
<path d="M0 5.333v-5.333h48v5.333h-48zM0 18.667h48v-5.333h-48v5.333zM0 32h48v-5.333h-48v5.333z"></path>
</symbol>
<symbol id="close" viewBox="0 0 32 32">
<path d="M31.439 3.166l-3.166-3.166-12.553 12.553-12.553-12.553-3.166 3.166 12.553 12.553-12.553 12.553 3.166 3.166 12.553-12.553 12.553 12.553 3.166-3.166-12.553-12.553 12.553-12.553z"></path>
</symbol>
<symbol id="icon-arrow-button" viewBox="0 0 32 32">
<path
        fill="none"
        stroke="#d41443"
        style="stroke: var(--color1, #d41443)"
        stroke-linejoin="round"
        stroke-linecap="round"
        stroke-miterlimit="4"
        stroke-width="6.4"
        d="M9.6 3.2l12.8 12.8-12.8 12.8"
      />
</symbol>
<symbol id="icon-arrow-button-white" viewBox="0 0 19 32">
<path
        fill="none"
        stroke="#fff"
        style="stroke: var(--color1, #fff)"
        stroke-linejoin="round"
        stroke-linecap="round"
        stroke-miterlimit="4"
        stroke-width="6.4"
        d="M3.2 3.2l11.552 12.8-11.552 12.8"
      />
</symbol>
<symbol id="icon-burger" viewBox="0 0 32 32">
<path
        fill="none"
        stroke="#d41443"
        style="stroke: var(--color1, #d41443)"
        stroke-linejoin="miter"
        stroke-linecap="butt"
        stroke-miterlimit="4"
        stroke-width="1.6"
        d="M0 6.4h32"
      />
<path
        fill="none"
        stroke="#d41443"
        style="stroke: var(--color1, #d41443)"
        stroke-linejoin="miter"
        stroke-linecap="butt"
        stroke-miterlimit="4"
        stroke-width="1.6"
        d="M0 16h32"
      />
<path
        fill="none"
        stroke="#d41443"
        style="stroke: var(--color1, #d41443)"
        stroke-linejoin="miter"
        stroke-linecap="butt"
        stroke-miterlimit="4"
        stroke-width="1.6"
        d="M0 25.6h32"
      />
</symbol>
<symbol id="icon-cross" viewBox="0 0 32 32">
<path
        fill="none"
        stroke="#fff"
        style="stroke: var(--color2, #fff)"
        stroke-linejoin="miter"
        stroke-linecap="butt"
        stroke-miterlimit="4"
        stroke-width="2"
        d="M2.519 2l26.963 28"
      />
<path
        fill="none"
        stroke="#fff"
        style="stroke: var(--color2, #fff)"
        stroke-linejoin="miter"
        stroke-linecap="butt"
        stroke-miterlimit="4"
        stroke-width="2"
        d="M2 29.481l28-26.963"
      />
</symbol>
<symbol id="icon-facebook" viewBox="0 0 32 32">
<path d="M16 32c8.837 0 16-7.163 16-16s-7.163-16-16-16c-8.837 0-16 7.163-16 16s7.163 16 16 16z"></path>
<path fill="#fff" style="fill: var(--color2, #fff)" d="M20.446 15.982h-2.61v9.618h-3.955v-9.618h-1.881v-3.38h1.881v-2.187c0-1.564 0.739-4.014 3.99-4.014l2.929 0.012v3.281h-2.125c-0.349 0-0.839 0.175-0.839 0.921v1.989h2.955l-0.346 3.377z"></path>
</symbol>
<symbol id="icon-github" viewBox="0 0 32 32">
<path d="M32 16c0 8.837-7.163 16-16 16s-16-7.163-16-16c0-8.837 7.163-16 16-16s16 7.163 16 16z"></path>
<path fill="#fff" style="fill: var(--color2, #fff)" d="M16 6.588c-5.169 0-9.412 4.242-9.412 9.412 0 4.411 3.095 8.419 7.206 9.412v-3.114c-0.407 0.089-0.782 0.092-1.197-0.030-0.556-0.164-1.008-0.535-1.344-1.1-0.214-0.361-0.593-0.752-0.988-0.723l-0.097-1.099c0.855-0.073 1.595 0.521 2.034 1.259 0.195 0.328 0.419 0.52 0.708 0.605 0.278 0.082 0.578 0.043 0.926-0.080 0.088-0.698 0.407-0.959 0.648-1.326v-0.001c-2.451-0.366-3.428-1.666-3.816-2.693-0.514-1.363-0.238-3.066 0.671-4.142 0.018-0.021 0.050-0.076 0.037-0.114-0.417-1.258 0.091-2.299 0.11-2.41 0.481 0.142 0.559-0.143 2.089 0.786l0.264 0.159c0.111 0.066 0.076 0.028 0.186 0.020 0.639-0.173 1.312-0.269 1.975-0.278 0.668 0.009 1.337 0.104 2.002 0.285l0.086 0.009c-0.007-0.001 0.023-0.005 0.075-0.036 1.911-1.157 1.842-0.779 2.355-0.946 0.019 0.111 0.519 1.169 0.107 2.411-0.056 0.171 1.657 1.739 0.708 4.256-0.388 1.027-1.365 2.328-3.816 2.693v0.001c0.314 0.479 0.692 0.734 0.69 1.722v3.887c4.111-0.993 7.206-5 7.206-9.412 0-5.169-4.242-9.412-9.412-9.412v0z"></path>
</symbol>
<symbol id="icon-telegram" viewBox="0 0 32 32">
<path d="M32 16c0 8.837-7.163 16-16 16s-16-7.163-16-16c0-8.837 7.163-16 16-16s16 7.163 16 16z"></path>
<path fill="#fff" style="fill: var(--color2, #fff)" d="M12.867 18.375l-0.318 4.169c0.454 0 0.651-0.182 0.887-0.401l2.13-1.9 4.415 3.017c0.81 0.421 1.38 0.199 1.599-0.695l2.898-12.672 0.001-0.001c0.257-1.117-0.433-1.554-1.222-1.28l-17.032 6.086c-1.162 0.421-1.145 1.026-0.198 1.3l4.355 1.264 10.115-5.907c0.476-0.294 0.909-0.131 0.553 0.163l-8.182 6.857z"></path>
</symbol>
<symbol id="icon-arrow-button-circle" viewBox="0 0 32 32">
<path
        d="M19.414 27.414l10-10c0.781-0.781 0.781-2.047 0-2.828l-10-10c-0.781-0.781-2.047-0.781-2.828 0s-0.781 2.047 0 2.828l6.586 6.586h-19.172c-1.105 0-2 0.895-2 2s0.895 2 2 2h19.172l-6.586 6.586c-0.39 0.39-0.586 0.902-0.586 1.414s0.195 1.024 0.586 1.414c0.781 0.781 2.047 0.781 2.828 0z"
      />
</symbol>
<symbol id="icon-modal-cl" viewBox="0 0 32 32"><path
        d="M32 3.223 28.777 0 16 12.777 3.223 0 0 3.223 12.777 16 0 28.777 3.223 32 16 19.223 28.777 32 32 28.777 19.223 16 32 3.223z"
      /></symbol>
<symbol id="icon-ice-coffee" viewBox="0 0 32 32">
<path
        d="M10.763 22.352c-0.36 0-0.652 0.292-0.652 0.652v0 2.641c0 0.36 0.292 0.652 0.652 0.652v0h2.641c0.36 0 0.652-0.292 0.652-0.652v0-2.641c0-0.36-0.292-0.652-0.652-0.652v0h-2.641zM12.752 24.993h-1.337v-1.337h1.337v1.337zM20.882 0c-2.428 0-4.403 1.975-4.403 4.403v0.083h-5.277l-0.211-3.569c-0.021-0.359-0.33-0.632-0.689-0.612-0.343 0.021-0.613 0.304-0.613 0.651 0 0.014 0 0.027 0.001 0.040l-0-0.002 0.207 3.492h-2.529c-0 0-0 0-0 0-0.36 0-0.652 0.292-0.652 0.652 0 0.013 0 0.026 0.001 0.038l-0-0.002 1.32 23.452v2.722c0 0.36 0.292 0.652 0.652 0.652v0h10.886c0.36 0 0.652-0.292 0.652-0.652v0-2.722l0.947-16.83c0.001-0.011 0.001-0.024 0.001-0.037 0-0.347-0.271-0.631-0.614-0.651l-0.002-0c-0.359-0.020-0.667 0.255-0.688 0.614l-0.914 16.233h-9.653l-0.993-17.65h1.93l0.565 9.555c0.021 0.359 0.33 0.632 0.689 0.612 0.343-0.021 0.613-0.304 0.613-0.651 0-0.014-0-0.027-0.001-0.040l0 0.002-0.561-9.478h2.815c0.36 0 0.652-0.292 0.652-0.652s-0.292-0.652-0.652-0.652v0h-2.892l-0.19-3.213h5.2v0.114c0 2.428 1.975 4.403 4.403 4.403s4.403-1.975 4.403-4.403v-1.5c0-2.428-1.975-4.403-4.403-4.403zM9.34 29.26h9.582v1.436h-9.582v-1.436zM8.237 9.003l-0.181-3.213h1.917l0.19 3.213h-1.926zM19.576 8.713c-1.058-0.494-1.792-1.568-1.792-2.81v-1.5c0-1.617 1.244-2.948 2.825-3.087 0.655 0.845 0.576 2.418-0.219 3.41-0.594 0.741-0.949 1.734-0.975 2.725-0.011 0.448 0.044 0.873 0.16 1.263zM23.981 5.903c0 1.617-1.245 2.948-2.826 3.087-0.725-0.914-0.497-2.514 0.252-3.449 0.819-1.022 1.181-2.617 0.784-3.947 1.057 0.494 1.79 1.568 1.79 2.809v1.5zM15.72 23.402l0.012 0c0 0 0 0 0 0 0.176 0 0.336-0.070 0.453-0.183l-0 0 1.901-1.834c0.123-0.119 0.199-0.285 0.199-0.469 0-0.176-0.070-0.336-0.183-0.453l0 0-1.834-1.901c-0.119-0.123-0.285-0.199-0.469-0.199-0.176 0-0.336 0.070-0.453 0.183l0-0-1.901 1.834c-0.123 0.119-0.199 0.285-0.199 0.469 0 0.176 0.070 0.336 0.183 0.453l-0-0 1.834 1.901c0.116 0.12 0.278 0.196 0.457 0.199h0.001zM15.782 19.938l0.929 0.962-0.962 0.929-0.929-0.962 0.962-0.929z"
      />
</symbol>
<symbol id="icon-ice-cream" viewBox="0 0 32 32">
<path
        d="M19.657 7.149c-0.285 0.005-0.514 0.237-0.514 0.522s0.229 0.518 0.514 0.522h0c1.056 0 1.916 0.859 1.916 1.916 0 0.288 0.234 0.522 0.522 0.522s0.522-0.234 0.522-0.522c-0-1.632-1.328-2.96-2.96-2.96zM14.576 8.255c-0.566-0.703-1.407-1.106-2.306-1.106-0.002-0-0.005-0-0.008-0-0.289 0-0.522 0.234-0.522 0.522s0.234 0.522 0.523 0.522c0.003 0 0.006-0 0.009-0h-0c0.582 0 1.126 0.261 1.493 0.717 0.096 0.119 0.243 0.195 0.406 0.195 0 0 0.001 0 0.001 0h-0c0.115 0 0.231-0.038 0.327-0.116 0.119-0.097 0.195-0.243 0.195-0.407 0-0.125-0.044-0.239-0.116-0.329l0.001 0.001zM15.873 1.692c-0.285 0.005-0.514 0.237-0.514 0.522s0.229 0.518 0.514 0.522h0c1.056 0 1.916 0.859 1.916 1.916 0 0.288 0.234 0.522 0.522 0.522s0.522-0.234 0.522-0.522c0-1.632-1.328-2.96-2.96-2.96z"
      />
<path
        d="M23.57 12.712c0.508-0.765 0.788-1.671 0.788-2.603 0-2.258-1.601-4.149-3.727-4.6 0.044-0.243 0.070-0.522 0.070-0.808v-0c0-2.593-2.109-4.702-4.702-4.702s-4.702 2.109-4.702 4.702c0 0.272 0.024 0.542 0.070 0.808-2.126 0.45-3.727 2.341-3.727 4.6 0 0.932 0.281 1.837 0.788 2.603-0.649 0.158-1.133 0.742-1.133 1.439v1.27c0 0.817 0.665 1.482 1.482 1.482h0.333l0.686 3.623c0.047 0.244 0.259 0.425 0.513 0.425h0.925l2.582 9.387c0.269 0.979 1.166 1.662 2.181 1.662s1.912-0.684 2.181-1.662l2.582-9.387h0.925c0 0 0 0 0 0 0.254 0 0.466-0.181 0.513-0.422l0.001-0.003 0.686-3.623h0.333c0.817 0 1.482-0.665 1.482-1.482v-1.27c-0-0.697-0.484-1.281-1.133-1.439zM23.314 10.109c0 0.956-0.379 1.878-1.045 2.559h-5.225c-0.666-0.681-1.045-1.603-1.045-2.559 0-2.017 1.64-3.657 3.657-3.657s3.657 1.64 3.657 3.657zM16 1.045c2.017 0 3.657 1.64 3.657 3.657 0 0.239-0.023 0.476-0.069 0.707-1.447 0.021-2.737 0.698-3.587 1.747-0.87-1.077-2.182-1.727-3.59-1.748-0.043-0.212-0.068-0.456-0.068-0.706 0-0 0-0 0-0v0c-0-2.017 1.64-3.657 3.657-3.657zM12.343 6.452c1.239 0 2.388 0.628 3.061 1.655-0.283 0.585-0.449 1.272-0.449 1.998 0 0.001 0 0.003 0 0.004v-0c0 0.914 0.269 1.803 0.759 2.559h-5.984c-0.666-0.681-1.045-1.603-1.045-2.559-0-2.017 1.64-3.657 3.657-3.657zM17.173 30.061c-0.145 0.526-0.627 0.894-1.174 0.894s-1.029-0.368-1.174-0.894l-2.505-9.11h7.358l-2.506 9.11zM21.255 19.906h-10.51l-0.569-3.004h11.648l-0.569 3.004zM23.221 15.857h-14.442c-0.241-0-0.437-0.196-0.437-0.437v-1.27c0-0.241 0.196-0.437 0.437-0.437h14.442c0.241 0 0.437 0.196 0.437 0.437v1.27h0c0 0.241-0.196 0.437-0.437 0.437z"
      />
</symbol>
<symbol id="icon-milkshake" viewBox="0 0 32 32">
<path
        d="M24.523 1.956h-2.037c-1.618 0-2.966 1.265-3.068 2.88l-0.257 4.058c-0.264-0.267-0.592-0.469-0.959-0.581l-0.016-0.004c0.159-0.303 0.253-0.662 0.253-1.043 0-0.001 0-0.001 0-0.002v0c0-0.953-0.584-1.772-1.413-2.118 0.139-0.272 0.221-0.594 0.221-0.935 0-0.001 0-0.001 0-0.002v0-0.248c0-2.184-1.777-3.961-3.961-3.961h-0.772c-0.371 0-0.673 0.301-0.673 0.673s0.301 0.673 0.673 0.673h0.393c0.313 0 0.568 0.255 0.568 0.568s-0.255 0.568-0.568 0.568h-1.608c-1.055 0-1.914 0.859-1.914 1.914 0 0.276 0.059 0.538 0.165 0.775-0.799 0.359-1.357 1.162-1.357 2.094 0 0 0 0.001 0 0.002 0 0.381 0.093 0.74 0.259 1.056l-0.006-0.013c-0.947 0.282-1.641 1.161-1.641 2.199 0 0.001 0 0.001 0 0.002 0 0.432 0.12 0.836 0.329 1.18l-0.006-0.010c-0.011 0.012-0.023 0.025-0.033 0.038-0.088 0.113-0.141 0.256-0.141 0.412 0 0.060 0.008 0.118 0.023 0.174l-0.001-0.005 3.225 12.434c0.311 1.2 1.146 2.154 2.221 2.644l-4.075 3.436c-0.147 0.124-0.239 0.308-0.239 0.514 0 0.372 0.301 0.673 0.673 0.673h10.109c0.372 0 0.673-0.301 0.673-0.673 0-0 0-0 0-0.001 0-0.218-0.104-0.412-0.265-0.534l-0.002-0.001-3.887-3.277c1.237-0.433 2.216-1.457 2.559-2.78l3.225-12.434c0.014-0.051 0.022-0.109 0.022-0.169 0-0.371-0.301-0.673-0.673-0.673-0 0-0 0-0 0h-0.194l0.413-6.536c0.057-0.908 0.815-1.62 1.725-1.62h2.037c0.371 0 0.673-0.301 0.673-0.673s-0.301-0.673-0.673-0.673zM11.298 3.827h1.608c1.055 0 1.914-0.858 1.914-1.914 0-0.024-0-0.047-0.001-0.071 0.655 0.476 1.082 1.248 1.082 2.118v0.248c0 0.419-0.341 0.76-0.76 0.761l-3.842-0.006c-0.313 0-0.568-0.255-0.568-0.568s0.255-0.568 0.568-0.568zM10.486 6.315h5.658c0.523 0 0.949 0.426 0.949 0.949s-0.426 0.949-0.949 0.949h-5.658c-0.523 0-0.949-0.426-0.949-0.949s0.426-0.949 0.949-0.949zM9.098 9.559h8.434c0.523 0 0.949 0.426 0.949 0.949s-0.426 0.949-0.949 0.949h-8.434c-0.523 0-0.949-0.426-0.949-0.949s0.426-0.949 0.949-0.949zM10.621 30.655l3.213-2.709 3.213 2.709h-6.425zM16.666 24.396c-0.305 1.176-1.367 1.998-2.582 1.998s-2.277-0.822-2.582-1.998l-2.21-8.519h8.104c0.371 0 0.673-0.301 0.673-0.673s-0.301-0.673-0.673-0.673h-8.453l-0.448-1.729h11.178l-3.007 11.593z"
      />
</symbol>
<symbol id="icon-delivery" viewBox="0 0 32 32">
<path
        d="M17.032 14.968h-0.185c-1.229 0.967-2.775 1.548-4.46 1.548s-3.231-0.582-4.46-1.548h-5.346v8.258h19.613v-8.258l-5.161 0z"
      />
<path
        d="M30.452 25.29h-0.516v-5.677h-2.113l-0.516-5.161h-4.596v-4.645h-2.607c0.011-0.171 0.026-0.342 0.026-0.516 0-2.080-0.829-3.967-2.168-5.36l0.362-0.362 0.925 0.925 0.73-0.73-2.581-2.581-0.73 0.73 0.925 0.925-0.396 0.396c-1.175-0.942-2.654-1.55-4.27-1.659l-0.023-0.001v-0.542h1.548v-1.032h-4.129v1.032h1.548v0.542c-1.64 0.11-3.119 0.718-4.309 1.672l0.015-0.012-0.396-0.396 0.925-0.925-0.73-0.73-2.581 2.581 0.73 0.73 0.925-0.925 0.362 0.362c-1.339 1.393-2.168 3.28-2.168 5.36 0 0.174 0.015 0.345 0.026 0.516h-2.607v15.484h-0.516c-0.854 0-1.548 0.695-1.548 1.548s0.695 1.548 1.548 1.548h3.097c0 1.992 1.621 3.613 3.613 3.613s3.613-1.621 3.613-3.613h9.806c0 1.992 1.621 3.613 3.613 3.613s3.613-1.621 3.613-3.613h1.548c0.854 0 1.548-0.695 1.548-1.548s-0.694-1.548-1.548-1.548zM26.372 15.484l0.413 4.129h-4.075v-4.129h3.662zM12.387 2.581c3.7 0 6.71 3.010 6.71 6.71s-3.010 6.71-6.71 6.71-6.71-3.010-6.71-6.71 3.010-6.71 6.71-6.71zM2.065 27.355h-0.516c-0.284 0-0.516-0.231-0.516-0.516s0.232-0.516 0.516-0.516h0.516v1.032zM8.258 30.968c-1.423 0-2.581-1.158-2.581-2.581s1.158-2.581 2.581-2.581 2.581 1.158 2.581 2.581-1.158 2.581-2.581 2.581zM11.719 27.355c-0.445-1.491-1.828-2.581-3.461-2.581s-3.015 1.090-3.461 2.581h-1.701v-16.516h1.704c0.719 3.529 3.847 6.194 7.586 6.194s6.867-2.664 7.586-6.194h1.704v16.516l-9.959-0zM25.29 30.968c-1.423 0-2.581-1.158-2.581-2.581s1.158-2.581 2.581-2.581c1.423 0 2.581 1.158 2.581 2.581s-1.158 2.581-2.581 2.581zM28.903 27.355h-0.152c-0.445-1.491-1.828-2.581-3.461-2.581-1.011 0-1.924 0.418-2.581 1.090v-5.219h6.194v6.71zM30.452 27.355h-0.516v-1.032h0.516c0.284 0 0.516 0.231 0.516 0.516s-0.232 0.516-0.516 0.516z"
      />
<path
        d="M8.258 26.839c-0.854 0-1.548 0.695-1.548 1.548s0.695 1.548 1.548 1.548 1.548-0.695 1.548-1.548c0-0.854-0.695-1.548-1.548-1.548zM8.258 28.903c-0.284 0-0.516-0.231-0.516-0.516s0.232-0.516 0.516-0.516 0.516 0.231 0.516 0.516c-0 0.285-0.231 0.516-0.516 0.516h-0zM25.29 26.839c-0.854 0-1.548 0.695-1.548 1.548s0.695 1.548 1.548 1.548 1.548-0.695 1.548-1.548c0-0.854-0.695-1.548-1.548-1.548zM25.29 28.903c-0.284 0-0.516-0.231-0.516-0.516s0.232-0.516 0.516-0.516c0.284 0 0.516 0.231 0.516 0.516s-0.231 0.516-0.516 0.516h-0zM10.839 9.29c0 0.854 0.695 1.548 1.548 1.548s1.548-0.695 1.548-1.548-0.695-1.548-1.548-1.548c-0.088 0-0.172 0.012-0.257 0.026l-2.965-3.458-0.784 0.672 2.835 3.307c-0.232 0.271-0.378 0.618-0.378 1.002zM12.903 9.29c-0.001 0.285-0.231 0.516-0.516 0.516h-0c-0.284 0-0.516-0.232-0.516-0.516s0.232-0.516 0.516-0.516c0.285 0.001 0.516 0.231 0.516 0.516v0zM11.917 14.944l0.085-1.029c-2.388-0.197-4.259-2.229-4.259-4.625 0-1.134 0.418-2.229 1.177-3.082l-0.771-0.686c-0.927 1.043-1.438 2.381-1.438 3.768 0 2.93 2.287 5.414 5.207 5.654z"
      />
</symbol>
<symbol id="icon-cafe" viewBox="0 0 32 32">
<path
        d="M30.4 0h-9.067c-0.293 0-0.533 0.24-0.533 0.533s0.24 0.533 0.533 0.533h9.066c0.293 0 0.533 0.24 0.533 0.533v0.533h-8c-0.293 0-0.533 0.24-0.533 0.533s0.24 0.533 0.533 0.533h8v3.733h-6.933c-0.293 0-0.533 0.24-0.533 0.533s0.24 0.533 0.533 0.533h6.933v0.533c0 0.293-0.24 0.533-0.533 0.533h-6.933c-0.293 0-0.533 0.24-0.533 0.533s0.24 0.533 0.533 0.533h6.547l0.713 2.133h-12.173c2.26-0.987 3.847-3.247 3.847-5.867 0-3.527-2.873-6.4-6.4-6.4s-6.4 2.873-6.4 6.4c0 2.62 1.587 4.88 3.847 5.867h-12.173l0.713-2.133h7.080c0.293 0 0.533-0.24 0.533-0.533s-0.24-0.533-0.533-0.533h-7.467c-0.293 0-0.533-0.24-0.533-0.533v-0.533h6.933c0.293 0 0.533-0.24 0.533-0.533s-0.24-0.533-0.533-0.533h-6.933v-3.733h8c0.293 0 0.533-0.24 0.533-0.533s-0.24-0.533-0.533-0.533h-8v-0.533c0-0.293 0.24-0.533 0.533-0.533h9.6c0.293 0 0.533-0.24 0.533-0.533s-0.24-0.533-0.533-0.533h-9.6c-0.88 0-1.6 0.72-1.6 1.6v6.933c0 0.633 0.373 1.18 0.913 1.44l-0.887 2.66c-0.053 0.16-0.027 0.34 0.073 0.48s0.26 0.22 0.433 0.22h0.533v15.566c-0.62 0.22-1.067 0.807-1.067 1.5v1.067c0 0.293 0.24 0.533 0.533 0.533h30.933c0.293 0 0.533-0.24 0.533-0.533v-1.067c0-0.693-0.447-1.28-1.067-1.5v-15.566h0.533c0.173 0 0.333-0.080 0.433-0.22s0.127-0.32 0.073-0.48l-0.887-2.66c0.54-0.26 0.913-0.807 0.913-1.44v-6.933c0-0.88-0.72-1.6-1.6-1.6zM10.667 6.4c0-2.94 2.393-5.333 5.333-5.333s5.333 2.393 5.333 5.333-2.393 5.333-5.333 5.333-5.333-2.393-5.333-5.333zM2.134 13.333h27.733v15.466h-10.666v-13.866c0-0.293-0.24-0.533-0.533-0.533h-5.333c-0.293 0-0.533 0.24-0.533 0.533v13.866h-10.666v-15.466zM13.867 24.533v-1.067h4.267v1.067h-4.267zM18.133 25.6v3.2h-4.267v-3.2h4.267zM13.867 22.4v-6.933h4.267v6.933h-4.267zM30.933 30.933h-29.866v-0.533c0-0.293 0.24-0.533 0.533-0.533h28.8c0.293 0 0.533 0.24 0.533 0.533v0.533z"
      />
<path
        d="M11.2 14.4h-7.467c-0.293 0-0.533 0.24-0.533 0.533v11.733c0 0.293 0.24 0.533 0.533 0.533h7.467c0.293 0 0.533-0.24 0.533-0.533v-11.733c0-0.293-0.24-0.533-0.533-0.533zM10.667 26.133h-6.4v-1.067h6.4v1.067zM10.667 24h-6.4v-8.533h2.667v2.207c-0.92 0.24-1.6 1.067-1.6 2.060 0 0.293 0.24 0.533 0.533 0.533h3.2c0.293 0 0.533-0.24 0.533-0.533 0-0.993-0.68-1.82-1.6-2.060v-2.207h2.667v8.533zM7.467 18.667c0.393 0 0.74 0.213 0.92 0.533h-1.847c0.187-0.32 0.533-0.533 0.927-0.533zM28.266 14.4h-7.467c-0.293 0-0.533 0.24-0.533 0.533v11.733c0 0.293 0.24 0.533 0.533 0.533h7.467c0.293 0 0.533-0.24 0.533-0.533v-11.733c0-0.293-0.24-0.533-0.533-0.533zM27.733 26.133h-6.4v-1.067h6.4v1.067zM27.733 24h-6.4v-8.533h2.667v2.207c-0.92 0.24-1.6 1.067-1.6 2.060 0 0.293 0.24 0.533 0.533 0.533h3.2c0.293 0 0.533-0.24 0.533-0.533 0-0.993-0.68-1.82-1.6-2.060v-2.207h2.667v8.533zM24.533 18.667c0.393 0 0.74 0.213 0.92 0.533h-1.847c0.187-0.32 0.533-0.533 0.927-0.533zM18.627 4.32c-0.227-1.24-1.32-2.187-2.627-2.187s-2.4 0.947-2.627 2.187c-0.94 0.22-1.64 1.067-1.64 2.080 0 0.993 0.68 1.827 1.6 2.067v1.667c0 0.293 0.24 0.533 0.533 0.533h4.267c0.293 0 0.533-0.24 0.533-0.533v-1.667c0.92-0.24 1.6-1.073 1.6-2.067 0-1.007-0.7-1.853-1.64-2.080zM18.133 7.467c-0.293 0-0.533 0.24-0.533 0.533v1.6h-3.2v-1.6c0-0.293-0.24-0.533-0.533-0.533-0.587 0-1.067-0.48-1.067-1.067 0-0.553 0.42-1 0.96-1.053 0.687 0.353 0.667 0.86 0.653 0.967-0.053 0.287 0.14 0.56 0.427 0.613 0.033 0.007 0.067 0.007 0.1 0.007 0.253 0 0.473-0.18 0.52-0.433 0.087-0.453-0.047-1.393-1.027-2 0.14-0.74 0.787-1.3 1.567-1.3 0.88 0 1.6 0.72 1.6 1.6 0 0.293 0.24 0.533 0.533 0.533 0.587 0 1.067 0.48 1.067 1.067s-0.48 1.067-1.067 1.067z"
      />
</symbol>
<symbol id="icon-close-2" viewBox="0 0 40 40">
<path d="M29.6667 12.88L27.7867 11L20.3333 18.4533L12.88 11L11 12.88L18.4533 20.3333L11 27.7867L12.88 29.6667L20.3333 22.2133L27.7867 29.6667L29.6667 27.7867L22.2133 20.3333L29.6667 12.88Z"/>
</symbol>
</defs>
</svg>
