<?xml version="1.0" standalone="no"?>
<!DOCTYPE svg PUBLIC "-//W3C//DTD SVG 20010904//EN"
 "http://www.w3.org/TR/2001/REC-SVG-20010904/DTD/svg10.dtd">
<svg version="1.0" xmlns="http://www.w3.org/2000/svg"
 width="301.000000pt" height="301.000000pt" viewBox="0 0 301.000000 301.000000"
 preserveAspectRatio="xMidYMid meet">
<metadata>
Created by potrace 1.14, written by Peter Selinger 2001-2017
</metadata>
<g transform="translate(0.000000,301.000000) scale(0.100000,-0.100000)"
fill="#000000" stroke="none">
<path d="M1350 3004 c-14 -2 -68 -11 -120 -20 -203 -34 -453 -142 -621 -268
-298 -225 -500 -541 -581 -913 -29 -135 -32 -412 -4 -558 94 -504 423 -915
892 -1116 50 -21 94 -39 98 -39 3 0 6 61 6 135 l0 135 -52 26 c-71 36 -195
163 -236 241 -51 97 -72 196 -72 337 l0 121 -52 13 c-175 41 -244 236 -137
382 25 33 128 90 164 90 21 0 22 6 28 103 14 227 100 413 265 569 268 253 664
299 992 115 102 -57 250 -206 307 -307 72 -128 113 -280 113 -417 0 -52 3 -63
16 -63 72 0 164 -66 200 -144 41 -88 28 -176 -39 -252 -45 -51 -78 -71 -136
-80 l-41 -7 0 -116 c0 -142 -19 -233 -66 -329 -45 -92 -140 -195 -228 -246
l-66 -39 0 -134 0 -134 23 7 c182 58 410 204 567 364 370 377 513 920 379
1436 -103 398 -386 750 -759 943 -220 114 -400 160 -650 166 -91 2 -176 2
-190 -1z"/>
<path d="M1360 2275 c-115 -26 -324 -144 -306 -173 18 -30 160 -111 242 -138
79 -26 102 -29 209 -28 102 0 132 5 201 27 73 24 158 72 224 126 l25 21 -30
25 c-149 125 -379 182 -565 140z"/>
<path d="M905 1917 c-39 -90 -56 -158 -62 -254 l-6 -93 662 0 661 0 0 63 c0
85 -23 186 -61 267 l-31 68 -65 -49 c-84 -64 -160 -102 -270 -136 -77 -23
-106 -26 -228 -27 -117 0 -153 3 -219 22 -110 32 -209 80 -289 140 l-68 52
-24 -53z"/>
<path d="M620 1370 c-27 -27 -26 -65 2 -84 20 -14 88 -16 540 -16 l518 0 0
-164 c0 -159 1 -165 22 -180 32 -22 64 -20 82 6 13 18 16 54 16 180 l0 158
284 0 c283 0 285 0 300 22 21 30 20 54 -4 78 -20 20 -33 20 -880 20 -847 0
-860 0 -880 -20z"/>
<path d="M842 953 c4 -114 8 -148 27 -196 46 -116 147 -209 268 -247 59 -18
93 -20 363 -20 270 0 304 2 363 20 87 27 152 73 209 148 67 88 88 162 88 313
l0 119 -90 0 -90 0 0 -76 c0 -42 -6 -95 -12 -118 -17 -56 -100 -141 -153 -155
-88 -24 -179 -3 -239 55 -57 56 -69 88 -74 197 l-4 97 -330 0 -330 0 4 -137z"/>
<path d="M1200 176 c0 -155 -12 -140 120 -156 143 -17 324 -11 453 16 l27 6 0
134 0 134 -300 0 -300 0 0 -134z"/>
</g>
</svg>
